# xmcd
#
# Track frame offsets:
#	150
#	10590
#	24612
#	37007
#	51237
#	66982
#	80727
#	94612
#	105942
#	119509
#	135096
#	148181
#	159336
#	171959
#	182894
#
# Disc length: 2613 seconds
#
# Revision: 1
# Processed by: cddbd v1.5.2PL0 Copyright (c) Steve Scherf et al.
# Submitted via: EasyCDDAExtractor 16.0.8.1
#
DISCID=c50a330f
DTITLE=ΓΙΑΝΝΗΣ ΒΟΓΙΑΤΖΗΣ - 80 χρόνια - CD1
DYEAR=2014
DGENRE=LAIKA
TTITLE0=Ένας ουρανός μ' αστέρια
TTITLE1=Η πρώτη μας νύχτα
TTITLE2=Πέταξε ένα πουλί
TTITLE3=’σε τα χέρια σου στα δυό μου χέρια
TTITLE4=Όλα μας τα όνειρα
TTITLE5=Πιο πάνω από τα σύννεφα
TTITLE6=Της Αθήνας το φεγγάρι
TTITLE7=Σ΄ αγαπώ σ΄όλες τις γλώσσες
TTITLE8=Μιά του κλέφτη, δυό του κλέφτη
TTITLE9=Φωκίωνος Νέγρη
TTITLE10=Συννεφιασμένο δειλινό
TTITLE11=Είναι ο έρωτας μπελάς
TTITLE12=Μιά ματιά, δυό ματιές
TTITLE13=Σε ξέχασα
TTITLE14=Ο Κισσός
EXTD=
EXTT0=
EXTT1=
EXTT2=
EXTT3=
EXTT4=
EXTT5=
EXTT6=
EXTT7=
EXTT8=
EXTT9=
EXTT10=
EXTT11=
EXTT12=
EXTT13=
EXTT14=
PLAYORDER=
